<svg xmlns="http://www.w3.org/2000/svg" width="60" height="63.92" viewBox="0 0 60 63.92"><g transform="translate(-15.701)"><g transform="translate(28.15 15.689)"><g transform="translate(0)"><path d="M117.024,125.994a1.328,1.328,0,1,0,1.328,1.328A1.329,1.329,0,0,0,117.024,125.994Z" transform="translate(-115.696 -125.994)"/></g></g><g transform="translate(29.203 33.553)"><path d="M137.648,278.3h-3.984v-3.984a1.328,1.328,0,1,0-2.656,0V278.3h-3.984a1.328,1.328,0,1,0,0,2.656h3.984v3.984a1.328,1.328,0,1,0,2.656,0v-3.984h3.984a1.328,1.328,0,1,0,0-2.656Z" transform="translate(-125.696 -272.986)"/></g><g transform="translate(15.701)"><path d="M74.363,40.2A9.981,9.981,0,0,0,60.72,36.543L55.649,39.47V28.629A6.287,6.287,0,0,0,54.4,24.884l-6.242-8.322V13.018a3.751,3.751,0,0,0,2.5-3.53V3.745A3.75,3.75,0,0,0,46.911,0H24.44a3.749,3.749,0,0,0-3.745,3.745V9.488a3.751,3.751,0,0,0,2.5,3.53v3.544l-6.242,8.323A6.286,6.286,0,0,0,15.7,28.629V52.807a6.249,6.249,0,0,0,6.242,6.242H42.006a9.977,9.977,0,0,0,13.566,3.53L70.707,53.84A9.994,9.994,0,0,0,74.363,40.2ZM23.191,3.745A1.25,1.25,0,0,1,24.44,2.5H46.911a1.25,1.25,0,0,1,1.248,1.248V9.488a1.25,1.25,0,0,1-1.248,1.248H24.44a1.25,1.25,0,0,1-1.248-1.248V3.745ZM18.947,26.382l6.491-8.655a1.248,1.248,0,0,0,.25-.749V13.233H45.662v2.5H34.427a1.248,1.248,0,0,0,0,2.5h11.86L52.4,26.382a3.778,3.778,0,0,1,.723,1.832h-34.9A3.776,3.776,0,0,1,18.947,26.382Zm3,30.17A3.749,3.749,0,0,1,18.2,52.807V51.546H40.879a10,10,0,0,0,.06,5.006h-19Zm19.915-7.49H18.2V30.71H53.152v10.2l-7.568,4.37A9.913,9.913,0,0,0,41.858,49.061ZM54.324,60.417a7.49,7.49,0,1,1-7.49-12.973l6.776-3.912L61.1,56.5Zm15.135-8.739-6.2,3.578-7.49-12.973,6.2-3.578a7.49,7.49,0,1,1,7.49,12.973Z" transform="translate(-15.701)"/></g></g></svg>