<svg xmlns="http://www.w3.org/2000/svg" width="59.397" height="62.003" viewBox="0 0 59.397 62.003"><g transform="translate(-0.5 0.001)"><path d="M48.981,46.67a31.829,31.829,0,0,0-15.063-5.958l1.974-4.875a1.187,1.187,0,0,1,.673-.664A18.18,18.18,0,1,0,18.073,4.553a.908.908,0,0,0,1.2,1.363A16.358,16.358,0,1,1,35.917,33.477a3.008,3.008,0,0,0-1.708,1.679L31.639,41.5l-.01.025,0,.007-.969,2.393a.622.622,0,0,1-1.152,0L28.389,41.17c0-.011-.009-.023-.014-.035l-2.421-5.979a3,3,0,0,0-1.7-1.677A16.408,16.408,0,0,1,13.719,17.8a16.2,16.2,0,0,1,3.212-9.334.908.908,0,0,0-1.458-1.083A18.005,18.005,0,0,0,11.9,17.756a18.228,18.228,0,0,0,11.7,17.42,1.18,1.18,0,0,1,.665.662l1.974,4.874a31.782,31.782,0,0,0-7.405,1.806.908.908,0,1,0,.639,1.7,29.931,29.931,0,0,1,4.988-1.4,22.624,22.624,0,0,0-5.66,8.945H15.278A8.143,8.143,0,0,0,8.9,38.636H8.833A8.155,8.155,0,0,0,5.91,54.4L7.4,58.07a1.55,1.55,0,0,0,2.873,0L11.754,54.4a8.038,8.038,0,0,0,1.581-.818h4.823a51.177,51.177,0,0,0-1.676,6.6H2.538A30.167,30.167,0,0,1,4.35,56.739a.908.908,0,1,0-1.55-.948A32.033,32.033,0,0,0,.608,60.071,1.394,1.394,0,0,0,1.894,62H58.268a1.393,1.393,0,0,0,1.284-1.933,32.029,32.029,0,0,0-10.571-13.4ZM11.092,52.711a1.79,1.79,0,0,0-1.018,1L8.832,56.778,7.589,53.71a1.785,1.785,0,0,0-1.014-1,6.338,6.338,0,0,1,2.258-12.26h.049a6.338,6.338,0,0,1,2.21,12.259Zm16.114-9.622.615,1.519a2.438,2.438,0,0,0,4.519,0l.614-1.517a12.418,12.418,0,0,1,4.1,4.14.908.908,0,1,0,1.52-.994A16.609,16.609,0,0,0,35.7,42.824,30.013,30.013,0,0,1,47.9,48.134a30.326,30.326,0,0,1,4.109,3.634H41.344c-.3-.781-.618-1.529-.95-2.239a.908.908,0,1,0-1.645.77q.331.709.641,1.469H20.766c1.731-4.247,3.97-7.312,6.44-8.679Zm-8.874,17.1a48.029,48.029,0,0,1,1.75-6.6H40.076a48.232,48.232,0,0,1,1.755,6.6Zm25.348,0a51.1,51.1,0,0,0-1.686-6.6H53.6a30.128,30.128,0,0,1,4.028,6.6Zm0,0" transform="translate(0 0)"/><path d="M162.132,74.015h15.033A1.717,1.717,0,0,0,178.88,72.3V62.475A4.041,4.041,0,0,0,180,59.681V57.133a.068.068,0,0,0,0-.01c0-.008,0-.017,0-.024v0a.908.908,0,0,0-.121-.41l-2.439-4.422a2.033,2.033,0,0,0-1.779-1.05H163.637a2.033,2.033,0,0,0-1.779,1.05l-2.439,4.422a.9.9,0,0,0-.122.437v.007s0,.008,0,.011v2.539a4.04,4.04,0,0,0,1.12,2.795V72.3a1.717,1.717,0,0,0,1.715,1.715Zm8.985-20.984.588,3.2h-4.114l.588-3.2Zm7.065,6.65a2.239,2.239,0,0,1-4.478,0V58.051h4.478Zm-10.773-1.63h4.478v1.63a2.239,2.239,0,0,1-4.479,0v-1.63Zm-1.816,0v1.63a2.239,2.239,0,0,1-4.479,0v-1.63ZM171.523,72.2h-3.751V66.483h3.751Zm1.816,0V65.793a1.128,1.128,0,0,0-1.127-1.127h-5.131a1.128,1.128,0,0,0-1.126,1.127V72.2h-3.723V63.58a4.056,4.056,0,0,0,4.267-1.343,4.051,4.051,0,0,0,6.295,0,4.054,4.054,0,0,0,4.268,1.343V72.2Zm2.507-19.056,1.705,3.091h-4l-.588-3.2h2.7a.213.213,0,0,1,.188.111Zm-12.4,0a.215.215,0,0,1,.188-.112h2.7l-.588,3.2h-4Zm0,0" transform="translate(-139.567 -45.013)"/><path d="M401.81,263.268a3.009,3.009,0,1,0-3.009-3.009A3.013,3.013,0,0,0,401.81,263.268Zm0-4.2a1.193,1.193,0,1,1-1.193,1.193A1.194,1.194,0,0,1,401.81,259.067Zm0,0" transform="translate(-350.067 -226.098)"/><path d="M359.637,217.448a.909.909,0,0,0,1.263.234,6.329,6.329,0,0,1,9.913,5.224,6.374,6.374,0,0,1-4.077,5.922,1.79,1.79,0,0,0-1.018,1l-1.243,3.069-1.242-3.069a1.788,1.788,0,0,0-1.015-1,6.354,6.354,0,0,1-4.079-6.073,6.241,6.241,0,0,1,.646-2.635.908.908,0,1,0-1.629-.8,8.039,8.039,0,0,0-.833,3.4,8.173,8.173,0,0,0,5.23,7.8l1.485,3.667a1.55,1.55,0,0,0,2.873,0l1.485-3.667a8.155,8.155,0,0,0-2.858-15.767,8.118,8.118,0,0,0-4.668,1.432A.909.909,0,0,0,359.637,217.448Zm0,0" transform="translate(-312.732 -188.747)"/><path d="M47.463,361.543a3.009,3.009,0,1,0,3.009,3.009A3.013,3.013,0,0,0,47.463,361.543Zm0,4.2a1.193,1.193,0,1,1,1.193-1.193A1.194,1.194,0,0,1,47.463,365.745Zm0,0" transform="translate(-38.631 -317.761)"/></g></svg>