<svg xmlns="http://www.w3.org/2000/svg" width="45" height="53.573" viewBox="0 0 45 53.573"><defs><style>.a{fill:#27293d;}</style></defs><g transform="translate(-1.003 -1.014)"><path class="a" d="M43.53,44.495a16.486,16.486,0,0,0,.868-5.447c0-9.1-5.719-19.743-13.486-24.163a7.451,7.451,0,0,0-1.833-3.879l2.528-5.4A3.233,3.233,0,0,0,26.4,1.953a4.1,4.1,0,0,1-5.793,0,3.233,3.233,0,0,0-5.2,3.654L17.93,11a7.608,7.608,0,0,0-.481.6,24.638,24.638,0,0,0-6.461-3.71,1.074,1.074,0,0,0-.773,2,22.491,22.491,0,0,1,3.907,1.958,18.355,18.355,0,0,0-8.958,2.626,1.072,1.072,0,1,0,1.108,1.832,16.218,16.218,0,0,1,9.986-2.237,7.484,7.484,0,0,0-.165.813C8.326,19.3,2.607,29.948,2.607,39.048a16.486,16.486,0,0,0,.868,5.447A4.815,4.815,0,1,0,9.6,51.684c3.442,1.929,8.113,2.9,13.906,2.9s10.464-.974,13.906-2.9A4.815,4.815,0,1,0,43.53,44.5ZM23.5,10.652a5.382,5.382,0,0,1,4.822,3.028,13.571,13.571,0,0,0-9.644,0A5.382,5.382,0,0,1,23.5,10.652ZM19.091,3.464a6.245,6.245,0,0,0,8.823,0,1.09,1.09,0,0,1,1.753,1.228L27.372,9.6a7.41,7.41,0,0,0-7.735,0l-2.3-4.9a1.089,1.089,0,0,1,1.751-1.232ZM41.183,51.371a2.679,2.679,0,0,1-2.443-1.593,1.072,1.072,0,0,0-1.567-.459c-3.156,2.072-7.755,3.124-13.671,3.124S12.987,51.391,9.832,49.319a1.072,1.072,0,0,0-1.567.459,2.679,2.679,0,1,1-3.132-3.66,1.072,1.072,0,0,0,.7-1.466,13.853,13.853,0,0,1-1.087-5.6c0-12.985,10.311-24.11,18.752-24.11s18.752,11.125,18.752,24.11a13.853,13.853,0,0,1-1.087,5.6,1.072,1.072,0,0,0,.7,1.466,2.671,2.671,0,0,1-.689,5.251Z" transform="translate(0)"/><path class="a" d="M25.151,32.26c-.373-.132-.754-.272-1.136-.416V25.861a3.92,3.92,0,0,1,1.62.758,1.188,1.188,0,1,0,1.6-1.755,6.4,6.4,0,0,0-3.222-1.417V22.2a1.188,1.188,0,0,0-2.376,0v1.341c-.2.043-.4.09-.6.152a5.008,5.008,0,0,0-3.429,3.931,4.4,4.4,0,0,0,1.44,4.338,12.024,12.024,0,0,0,2.592,1.479V40.99a5.156,5.156,0,0,1-2.8-1.032,1.188,1.188,0,1,0-1.3,1.989,7.43,7.43,0,0,0,4.1,1.418v1.4a1.188,1.188,0,1,0,2.376,0v-1.5A6.031,6.031,0,0,0,28.8,38.317a5.293,5.293,0,0,0-3.646-6.057Zm-4.633-2.171a2.057,2.057,0,0,1-.571-2.029,2.673,2.673,0,0,1,1.7-2.054V30.8a7.7,7.7,0,0,1-1.131-.709Zm5.94,7.834A3.7,3.7,0,0,1,24.019,40.8v-6.43l.344.125a2.954,2.954,0,0,1,2.091,3.424Z" transform="translate(0.562 1.594)"/></g></svg>