<svg xmlns="http://www.w3.org/2000/svg" width="61" height="61.989" viewBox="0 0 61 61.989"><defs><style>.a{fill:#141414;}.b{fill:#151a6a;}.c{fill:#1d1d1d;}</style></defs><g transform="translate(-1.5 -1.011)"><path class="a" d="M24.5,43h16a1,1,0,0,0,1-1V28a1,1,0,0,0-1-1h-16a1,1,0,0,0-1,1V42A1,1,0,0,0,24.5,43Zm6-14h4v4l-2-1-2,1Z"/><circle class="a" cx="4" cy="4" r="4" transform="translate(48.5 50)"/><circle class="a" cx="4" cy="4" r="4" transform="translate(18.5 50)"/><circle class="a" cx="4" cy="4" r="4" transform="translate(33.5 50)"/><path class="a" d="M53.5,45h-32a9,9,0,0,0,0,18h32a9,9,0,0,0,0-18Zm-31,15a6,6,0,1,1,6-6A6,6,0,0,1,22.5,60Zm15,0a6,6,0,1,1,6-6A6,6,0,0,1,37.5,60Zm15,0a6,6,0,1,1,6-6A6,6,0,0,1,52.5,60Z"/><path class="b" d="M10.5,38a4,4,0,1,0,4,4A4,4,0,0,0,10.5,38Zm0,6a2,2,0,1,1,2-2A2,2,0,0,1,10.5,44Z"/><circle class="b" cx="1.5" cy="1.5" r="1.5" transform="translate(40 7)"/><path class="b" d="M10.5,12A3.5,3.5,0,1,0,7,8.5,3.5,3.5,0,0,0,10.5,12Zm0-5A1.5,1.5,0,1,1,9,8.5,1.5,1.5,0,0,1,10.5,7Z"/><path class="c" d="M44.5,22h-2V13.9A5.5,5.5,0,1,0,37.26,5H17.13A7.49,7.49,0,1,0,5.5,14.07V34.52A9,9,0,0,0,1.5,42v6a3,3,0,0,0,3,3h12a3,3,0,0,0,3-3V42a9,9,0,0,0-4-7.48V14.07A7.47,7.47,0,0,0,17.13,12H37.26a5.45,5.45,0,0,0,3.24,1.9V22h-2a2,2,0,0,0-2,2v6a2,2,0,0,0,2,2h2v3.5l-3.6,2.7a1,1,0,0,0-.29,1.25l2,4a1,1,0,1,0,1.78-.9L38.77,39.3l2.73-2,2.73,2-1.62,3.25a1,1,0,1,0,1.78.9l2-4a1,1,0,0,0-.29-1.25l-3.6-2.7V32h2a2,2,0,0,0,2-2V24a2,2,0,0,0-2-2ZM5,8.5A5.5,5.5,0,1,1,10.5,14,5.5,5.5,0,0,1,5,8.5ZM17.5,42v6a1,1,0,0,1-1,1H4.5a1,1,0,0,1-1-1V42a7,7,0,0,1,14,0Zm-4-8.47a8.76,8.76,0,0,0-6,0V15.37a7.46,7.46,0,0,0,6,0ZM17.85,10a7.58,7.58,0,0,0,0-3H36.21a5.46,5.46,0,0,0,0,3ZM38,8.5A3.5,3.5,0,1,1,41.5,12,3.5,3.5,0,0,1,38,8.5ZM38.5,30V24h6v6Z"/></g></svg>