<?xml version="1.0" encoding="utf-8"?>
<!-- Generator: Adobe Illustrator 24.2.0, SVG Export Plug-In . SVG Version: 6.00 Build 0)  -->
<svg version="1.1" id="Layer_1" xmlns="http://www.w3.org/2000/svg" xmlns:xlink="http://www.w3.org/1999/xlink" x="0px" y="0px"
	 viewBox="0 0 1366 745" style="enable-background:new 0 0 1366 745;" xml:space="preserve">
<style type="text/css">
	.st0{clip-path:url(#SVGID_2_);}
	.st1{opacity:0.88;fill:#FFFFFF;enable-background:new    ;}
	.st2{opacity:0.88;fill:#FB3B64;enable-background:new    ;}
	.st3{fill:#1C1445;}
	.st4{opacity:0.39;}
	.st5{opacity:0.8;}
	.st6{fill:none;}
	.st7{fill:none;stroke:#FF00F5;stroke-dasharray:18;}
	.st8{opacity:0.2;}
	.st9{fill:none;stroke:#FFFFFF;}
	.st10{opacity:0.1;}
	.st11{clip-path:url(#SVGID_4_);}
	.st12{fill:url(#SVGID_5_);}
	.st13{fill:url(#SVGID_6_);}
	.st14{fill:#F7A157;}
	.st15{fill:#FF1A1A;}
	.st16{display:none;}
	.st17{display:inline;fill:#FFFFFF;}
	.st18{display:inline;opacity:0.2;fill:#FFFFFF;enable-background:new    ;}
</style>
<g>
	<defs>
		<rect id="SVGID_1_" width="1366" height="745"/>
	</defs>
	<clipPath id="SVGID_2_">
		<use xlink:href="#SVGID_1_"  style="overflow:visible;"/>
	</clipPath>
	<g class="st0">
		<path class="st1" d="M243,120h63c8.3,0,15,6.7,15,15v17c0,8.3-6.7,15-15,15h-63c-8.3,0-15-6.7-15-15v-17
			C228,126.7,234.7,120,243,120z"/>
		<path class="st2" d="M304,167h697c20.4,0,37,16.6,37,37v405c0,20.4-16.6,37-37,37H304c-20.4,0-37-16.6-37-37V204
			C267,183.6,283.6,167,304,167z"/>
		<rect x="-40" y="-53" class="st3" width="1418" height="798"/>
		<g transform="translate(-31.34 65.66)" class="st4">
			<g transform="translate(351.34 -68.66)" class="st5">
				<circle class="st6" cx="349" cy="349" r="349"/>
				<circle class="st7" cx="349" cy="349" r="348.5"/>
			</g>
			<g transform="translate(194.34 -225.66)" class="st8">
				<circle class="st6" cx="506" cy="506" r="506"/>
				<circle class="st9" cx="506" cy="506" r="505.5"/>
			</g>
			<g transform="translate(38.34 -381.66)" class="st10">
				<circle class="st6" cx="662" cy="662" r="662"/>
				<circle class="st9" cx="662" cy="662" r="661.5"/>
			</g>
		</g>
		<g transform="matrix(-0.545, -0.839, 0.839, -0.545, 1040.149, 1242.398)">
			<g transform="translate(361.756 54.551)">
				<g>
					<defs>
						<polygon id="SVGID_3_" points="185.4,176.2 239.1,181.4 473.4,150.5 559.3,195.2 606.8,238.1 651.3,220.8 651.3,123.3 
							405.8,0 165.3,56.2 0,181.4 33.1,369.7 127.8,538.1 392.8,596.7 600.4,497.6 589,475.2 559.3,443.3 398.1,462.3 239.1,421.2 
							221.5,327.6 200.7,291.1 154.6,262.5 100.5,275.7 89.7,195.2 141.7,158.1 						"/>
					</defs>
					<clipPath id="SVGID_4_">
						<use xlink:href="#SVGID_3_"  style="overflow:visible;"/>
					</clipPath>
					<g class="st11">
						
							<linearGradient id="SVGID_5_" gradientUnits="userSpaceOnUse" x1="662.086" y1="-677.5084" x2="662.086" y2="-676.5084" gradientTransform="matrix(-272.6871 419.7875 419.788 272.6867 465359.9062 -93136.6562)">
							<stop  offset="0" style="stop-color:#F7A157"/>
							<stop  offset="1" style="stop-color:#FF0000"/>
						</linearGradient>
						<path class="st12" d="M407.7,551.5c-16.9,0-33.8-1.7-50.4-5.1c-32-6.6-62.4-19.3-89.5-37.6c-40.2-27.2-71.7-65.4-90.6-110.1
							c-6.4-15.1-11.3-30.9-14.6-47c-6.8-33.3-6.8-67.6,0-100.8c6.6-32,19.3-62.4,37.6-89.5c27.2-40.2,65.4-71.7,110.1-90.6
							c15.1-6.4,30.9-11.3,47-14.6c33.3-6.8,67.6-6.8,100.8,0c32,6.6,62.4,19.3,89.5,37.6c40.2,27.2,71.7,65.4,90.6,110.1
							c6.4,15.1,11.3,30.9,14.6,47c6.8,33.3,6.8,67.6,0,100.8c-6.6,32-19.3,62.4-37.6,89.5c-27.2,40.2-65.4,71.7-110.1,90.6
							c-15.1,6.4-30.9,11.3-47,14.6C441.6,549.8,424.7,551.6,407.7,551.5z M407.7,90.3c-14.3,0-28.5,1.4-42.5,4.3
							c-27,5.5-52.6,16.3-75.5,31.8c-33.9,22.9-60.5,55.2-76.5,92.8c-5.4,12.8-9.5,26-12.3,39.6c-5.7,28.1-5.7,57,0,85.1
							c5.5,27,16.3,52.6,31.8,75.5c22.9,33.9,55.2,60.5,92.8,76.5c12.8,5.4,26,9.5,39.6,12.3c28.1,5.7,57,5.7,85.1,0
							c27-5.5,52.6-16.3,75.5-31.8c33.9-22.9,60.5-55.2,76.5-92.8c5.4-12.8,9.5-26,12.3-39.6c5.7-28.1,5.7-57,0-85.1
							c-5.5-27-16.3-52.6-31.8-75.5c-22.9-33.9-55.2-60.5-92.8-76.5c-12.8-5.4-26-9.5-39.6-12.3C436.3,91.8,422,90.3,407.7,90.3
							L407.7,90.3z"/>
					</g>
				</g>
				
					<linearGradient id="SVGID_6_" gradientUnits="userSpaceOnUse" x1="662.086" y1="-677.5084" x2="662.086" y2="-676.5084" gradientTransform="matrix(-272.6871 419.7875 419.788 272.6867 465360.4688 -93146.2422)">
					<stop  offset="0" style="stop-color:#F7A157"/>
					<stop  offset="1" style="stop-color:#FF0000"/>
				</linearGradient>
				<path class="st13" d="M408.3,542c-16.9,0-33.8-1.7-50.4-5.1c-32-6.6-62.4-19.3-89.5-37.6c-40.2-27.2-71.7-65.4-90.6-110.1
					c-6.4-15.1-11.3-30.9-14.6-47c-6.8-33.3-6.8-67.6,0-100.8c6.6-32,19.3-62.4,37.6-89.5c27.2-40.2,65.4-71.7,110.1-90.6
					c15.1-6.4,30.9-11.3,47-14.6c33.3-6.8,67.6-6.8,100.8,0c32,6.6,62.4,19.3,89.5,37.6c40.2,27.2,71.7,65.4,90.6,110.1
					c6.4,15.1,11.3,30.9,14.6,47c6.8,33.3,6.8,67.6,0,100.8c-6.6,32-19.3,62.4-37.6,89.5c-27.2,40.2-65.4,71.7-110.1,90.6
					c-15.1,6.4-30.9,11.3-47,14.6C442.1,540.3,425.2,542,408.3,542z M408.3,80.8c-14.3,0-28.5,1.4-42.5,4.3
					c-27,5.5-52.6,16.3-75.5,31.8c-33.9,22.9-60.5,55.2-76.5,92.8c-5.4,12.8-9.5,26-12.3,39.6c-5.7,28.1-5.7,57,0,85.1
					c5.5,27,16.3,52.6,31.8,75.5c22.9,33.9,55.2,60.5,92.8,76.5c12.8,5.4,26,9.5,39.6,12.3c28.1,5.7,57,5.7,85.1,0
					c27-5.5,52.6-16.3,75.5-31.8c33.9-22.9,60.5-55.2,76.5-92.8c5.4-12.8,9.5-26,12.3-39.6c5.7-28.1,5.7-57,0-85.1
					c-5.5-27-16.3-52.6-31.8-75.5c-22.9-33.9-55.2-60.5-92.8-76.5c-12.8-5.4-26-9.5-39.6-12.3C436.8,82.2,422.6,80.8,408.3,80.8
					L408.3,80.8z"/>
				<path class="st14" d="M408.3,542c-16.9,0-33.8-1.7-50.4-5.1c-32-6.6-62.4-19.3-89.5-37.6c-40.2-27.2-71.7-65.4-90.6-110.1
					c-6.4-15.1-11.3-30.9-14.6-47c-6.8-33.3-6.8-67.6,0-100.8c6.6-32,19.3-62.4,37.6-89.5c27.2-40.2,65.4-71.7,110.1-90.6
					c15.1-6.4,30.9-11.3,47-14.6c33.3-6.8,67.6-6.8,100.8,0c32,6.6,62.4,19.3,89.5,37.6c40.2,27.2,71.7,65.4,90.6,110.1
					c6.4,15.1,11.3,30.9,14.6,47c6.8,33.3,6.8,67.6,0,100.8c-6.6,32-19.3,62.4-37.6,89.5c-27.2,40.2-65.4,71.7-110.1,90.6
					c-15.1,6.4-30.9,11.3-47,14.6C442.1,540.3,425.2,542,408.3,542z M408.3,80.8c-14.3,0-28.5,1.4-42.5,4.3
					c-27,5.5-52.6,16.3-75.5,31.8c-33.9,22.9-60.5,55.2-76.5,92.8c-5.4,12.8-9.5,26-12.3,39.6c-5.7,28.1-5.7,57,0,85.1
					c5.5,27,16.3,52.6,31.8,75.5c22.9,33.9,55.2,60.5,92.8,76.5c12.8,5.4,26,9.5,39.6,12.3c28.1,5.7,57,5.7,85.1,0
					c27-5.5,52.6-16.3,75.5-31.8c33.9-22.9,60.5-55.2,76.5-92.8c5.4-12.8,9.5-26,12.3-39.6c5.7-28.1,5.7-57,0-85.1
					c-5.5-27-16.3-52.6-31.8-75.5c-22.9-33.9-55.2-60.5-92.8-76.5c-12.8-5.4-26-9.5-39.6-12.3C436.8,82.2,422.6,80.8,408.3,80.8
					L408.3,80.8z"/>
			</g>
		</g>
		<ellipse class="st15" cx="433" cy="574.5" rx="83" ry="68.5"/>
		<g transform="translate(-523 -55)" class="st16">
			<circle class="st17" cx="1801.5" cy="384.5" r="10.5"/>
			<circle class="st18" cx="1801.5" cy="428.5" r="5.5"/>
			<circle class="st18" cx="1801.5" cy="467.5" r="5.5"/>
			<circle class="st18" cx="1801.5" cy="506.5" r="5.5"/>
		</g>
		<path class="st6" d="M300,164h765c20.4,0,37,16.6,37,37v354c0,20.4-16.6,37-37,37H300c-20.4,0-37-16.6-37-37V201
			C263,180.6,279.6,164,300,164z"/>
	</g>
</g>
</svg>
