<svg xmlns="http://www.w3.org/2000/svg" width="60" height="60" viewBox="0 0 60 60"><defs><style>.a{fill:#27293d;}</style></defs><g transform="translate(-2 -2)"><path class="a" d="M32,62A29.977,29.977,0,0,0,53.893,11.521l7.814-7.814L60.293,2.293l-7.814,7.814A29.878,29.878,0,0,0,32,2H3A1,1,0,0,0,2,3V32A30.034,30.034,0,0,0,32,62ZM51,31H49V16.414l2-2Zm2-17.491A27.876,27.876,0,0,1,59.975,31H53ZM47,31H45V20.414l2-2Zm-4,0H41V24.414l2-2Zm-4,0H34.414L39,26.414ZM13,33h2V54.228q-1.039-.8-2-1.685Zm4,0h2V56.788q-1.026-.54-2-1.163Zm4,0h2V58.508c-.678-.231-1.346-.482-2-.762Zm4,0h2V59.544c-.674-.122-1.343-.26-2-.43Zm4,0h2V59.975c-.673-.024-1.34-.067-2-.137Zm2-3.414L12.934,11.52A27.9,27.9,0,0,1,31,4.025ZM29.586,31H4.025A27.886,27.886,0,0,1,11.52,12.934ZM7,33V44.586A27.8,27.8,0,0,1,4.025,33Zm2,0h2V50.491a28.316,28.316,0,0,1-2-2.549ZM33,59.975V33H59.975A28.027,28.027,0,0,1,33,59.975Zm0-30.389V4.025A27.886,27.886,0,0,1,51.066,11.52ZM11.521,10.107,5.414,4H21.248a30.039,30.039,0,0,0-9.727,6.107ZM4,5.414l6.107,6.107A30.039,30.039,0,0,0,4,21.248Z"/><path class="a" d="M39,42h2v8h2V42h2v6a1,1,0,0,0,.293.707l2,2,1.414-1.414L47,47.586V42h2V40H39Z"/><path class="a" d="M51,35h2v2H51Z"/><path class="a" d="M47,35h2v2H47Z"/><path class="a" d="M55,35h2v2H55Z"/></g></svg>